<?xml version="1.0" encoding="utf-8"?>
<!-- Generator: Adobe Illustrator 21.1.0, SVG Export Plug-In . SVG Version: 6.00 Build 0)  -->
<svg version="1.1"
	 id="svg2" inkscape:version="0.91 r13725" sodipodi:docname="mue_logo_vector.svg" xmlns:cc="http://creativecommons.org/ns#" xmlns:dc="http://purl.org/dc/elements/1.1/" xmlns:inkscape="http://www.inkscape.org/namespaces/inkscape" xmlns:rdf="http://www.w3.org/1999/02/22-rdf-syntax-ns#" xmlns:sodipodi="http://sodipodi.sourceforge.net/DTD/sodipodi-0.dtd" xmlns:svg="http://www.w3.org/2000/svg"
	 xmlns="http://www.w3.org/2000/svg" xmlns:xlink="http://www.w3.org/1999/xlink" x="0px" y="0px" viewBox="0 0 374 373.8"
	 enable-background="new 0 0 374 373.8" xml:space="preserve">
<sodipodi:namedview  bordercolor="#666666" borderopacity="1.0" fit-margin-bottom="0" fit-margin-left="0" fit-margin-right="0" fit-margin-top="0" id="base" inkscape:current-layer="layer1" inkscape:cx="454.79126" inkscape:cy="63.695769" inkscape:document-units="px" inkscape:guide-bbox="true" inkscape:pageopacity="0.0" inkscape:pageshadow="2" inkscape:window-height="1017" inkscape:window-maximized="1" inkscape:window-width="1920" inkscape:window-x="-8" inkscape:window-y="-8" inkscape:zoom="0.70710678" pagecolor="#ffffff" showgrid="false" showguides="true">
	<sodipodi:guide  id="guide3668" orientation="0,1" position="311.55517,143.57451"></sodipodi:guide>
	<sodipodi:guide  id="guide3670" orientation="1,0" position="233.0805,182.58311"></sodipodi:guide>
	<sodipodi:guide  id="guide3672" orientation="0,1" position="241.19805,330.22861"></sodipodi:guide>
	<sodipodi:guide  id="guide3674" orientation="0,1" position="237.30896,240.24927"></sodipodi:guide>
</sodipodi:namedview>
<g id="logo-foreground" transform="translate(117.37503,-482.0679)" inkscape:groupmode="layer" inkscape:label="Layer 1">
	<path id="path3666" inkscape:connector-curvature="0" sodipodi:nodetypes="sssssscccccccccccsssscsssssss" fill="#FFF" d="
		M48.9,854.9c-87.6-10.2-156.1-79.4-165.3-167c-9.1-86.2,44.8-169.3,127.2-196.3c113.7-37.2,232.2,39.5,244.7,158.6
		c9.7,91.7-51.2,178.2-141,200.2C94,855.4,68.6,857.2,48.9,854.9L48.9,854.9z M6.2,741l21.3-77.4L69.1,710l40.6-46.3l22.3,77.4
		l31.6,0l-33.9-149.3L69.1,661L8.2,591.7L-25.6,741L6.2,741z M79.9,607.1c12.7-12.3,24-21.4,39.4-31.7c7.1-4.7,8.7-6.5,5.8-6.5
		c-4,0-33.1,19.6-49.5,33.4l-9.4,7.9l-4.6-4.9c-2.5-2.7-9-9.8-14.5-15.7c-5.4-5.9-11-11.5-12.3-12.3c-2.1-1.4-2.6-1.4-4.8,0.1
		c-1.4,0.9-2.5,2.5-2.5,3.6c0,6.7,17.5,29.3,27.9,36.1C63.6,622.3,64.9,621.8,79.9,607.1L79.9,607.1z"/>
</g>
</svg>
