<svg version="1" xmlns="http://www.w3.org/2000/svg" width="498.667" height="498.667" viewBox="0 0 374.000000 374.000000"><path d="M170.9.4c-.2.2-2.9.6-5.9 1-28.7 3.1-58 14.2-84.4 31.8-10.3 6.9-27.8 23-37.3 34.1C39.6 71.7 30 84.8 30 85.4c0 .3-1.2 2.2-2.6 4.3-2.2 3.2-8.5 14.7-8.9 16.3-.1.3-1.2 2.7-2.4 5.5-1.3 2.7-2.8 6.3-3.6 8-1.3 3.2-4.2 11.9-5 15.1-.3 1-1.3 5.5-2.4 10-3.8 15.5-4.9 26-4.5 44.9.2 9.9.5 18.9.7 20 .2 1.1.8 4.5 1.2 7.5.5 3 .9 5.7 1 6 .1.3.5 2.3.9 4.5.5 2.2 1.4 5.9 2.2 8.2.7 2.3 1.5 5.2 1.8 6.5.7 3.5 2.8 9.2 3.7 10.2.5.6.9 1.5.9 2.2 0 .7 1 3.4 2.2 6.1 1.2 2.6 2.2 5 2.3 5.3.1.7 5.1 10.2 7.6 14.7 3 5.4 13.2 20 17.6 25.3 13.4 16.1 37.4 36.1 53.4 44.5 8.6 4.5 16.9 8.3 22.4 10.4 3.3 1.3 6.9 2.7 8 3.1 1.6.6 6.2 2 12 3.6 14.9 4.2 29.7 5.9 49.5 5.9 22.4 0 38.1-2.5 58-9.1 9.1-3.1 36.6-15.6 38-17.3.3-.4 3-2.2 6-4.1 3-1.9 6-3.9 6.6-4.5.7-.5 2.4-1.9 4-3 10-7.2 27-24.4 36.2-36.7 3.9-5.3 7.2-10.1 7.2-10.7 0-.6.4-1.1.8-1.1.5 0 1.7-1.9 2.8-4.1 1-2.3 2.3-4.7 2.9-5.3 1-1.1 10.5-21.1 11-23.1.1-.6.7-2.3 1.4-3.8 1.3-3.4 6.4-20.6 6.6-22.7.1-.8.5-2.9.8-4.5 3.3-15 4.4-42.5 2.4-58.5-1.1-8.7-2.8-17.3-5.1-26.5-.2-.6-.6-2.4-1.1-4-1.2-4.8-9.6-26.9-10.7-28.2-.6-.7-2.3-3.9-3.8-7-2.7-5.8-13.1-21.9-16.6-26-1.1-1.2-2.8-3.4-3.9-5-6.3-8.8-27.5-28-41.2-37.1-20.1-13.5-50.6-25.5-72.8-28.7-2.3-.3-5.2-.8-6.5-1.1-2.7-.6-39.5-1.5-40.1-1zm72.4 89.2c-.3.8-.8 1.3-1 1-.3-.2-1.3.3-2.3 1.2-3.6 3.3-4.9 4.2-6 4.2-.5 0-1 .4-1 1 0 .5-.7 1-1.5 1s-1.5.3-1.5.8c0 .4-1.6 1.6-3.5 2.6-1.9 1.1-3.5 2.3-3.5 2.8s-.5.6-1 .3c-.6-.3-1.3 0-1.5.8-.3.7-2.1 2-4 2.7-1.9.7-3.2 1.7-2.9 2.1.2.4-.5 1-1.6 1.4-1.1.3-2 1.1-2 1.6s-.5.9-1 .9c-.6 0-2.3 1.2-3.7 2.7-1.4 1.6-2.9 2.7-3.4 2.5-.5-.1-.9.3-.9 1 0 1.3-11.7 12.8-13.1 12.8-.5 0-.9.4-.9.8 0 1.3-6.8 4.2-8.5 3.6-.9-.4-1.5-.1-1.5.7-.1 1-.5.9-1.4-.4-.7-.9-1.8-1.7-2.4-1.7-.6 0-2.3-1.1-3.8-2.5s-3.1-2.5-3.6-2.5-.6-.5-.3-1c.3-.6-.1-1-.9-1-.9 0-1.6-.7-1.6-1.6 0-.8-.4-1.2-1-.9-.5.3-1-.1-1-.9 0-.9-.9-2.1-2-2.8-1.1-.7-2-1.7-2-2.1 0-.5-.6-1.4-1.2-2.2-2.4-2.5-4.8-5.5-4.8-6.1 0-.3-.6-1.2-1.2-1.9-3.1-3.5-3.8-4.5-3.1-4.5.4 0 .3-.4-.3-.8-2.7-1.7-1.4-8.7 1.7-9.7 1.1-.4 3.1.2 4.8 1.4 1.5 1.1 3.1 1.8 3.5 1.6.3-.3.4-.2.2.1-.2.3 1.9 2.9 4.7 5.7 2.9 2.9 6.6 7 8.2 9.1 1.7 2.1 4.5 5.5 6.2 7.5 1.8 2 3.3 4 3.3 4.4 0 .5.5.5 1 .2.6-.3 1-.2 1 .3s1.1 1.2 2.5 1.5c1.4.2 2.3.2 2-.1-.3-.3.7-1.3 2.3-2.3 1.5-1.1 3.6-2.4 4.6-3.1 1.1-.7 4.1-3.4 6.8-6 2.6-2.6 4.8-4.4 4.8-4 0 .4.5-.1 1.1-1.1.6-.9 1.4-1.5 2-1.2.5.4.9.2.9-.4 0-.5 1.7-2 3.8-3.2 2-1.3 4-2.8 4.4-3.5.4-.6 2-1.5 3.5-1.9 1.5-.3 3-1 3.3-1.3 1-1.4 9-6.2 9-5.5 0 .5.5 0 1.1-1 .6-.9 1.4-1.5 2-1.2.5.4.9.2.9-.3 0-.9 3.7-2.5 5.3-2.3.4.1.7-.4.7-1 0-.5.4-.8 1-.4.5.3.7 1.2.3 2.1zm-115.2 20.3c.9 2 1.6 2.6 2.1 1.8s.8-.6.8.5c0 1 .5 1.8 1 1.8.6 0 1 .7 1 1.5 0 .9.7 1.8 1.5 2.1.8.4 1.5 1 1.5 1.5 0 1.6 3.3 4.8 4.4 4.2.6-.3.8-.3.4.2-.4.4-.2 1.3.5 2s2.1 2.5 3.1 4c2 2.6 3.6 4.6 8.2 9.7 1.3 1.6 2.2 2.8 1.9 2.8-.3 0 .8 1.3 2.5 3 1.7 1.6 2.8 3 2.5 3-.3 0 0 .6.7 1.4.7.8 1.7 1.1 2.2.8.5-.3.6 0 .2.6-.4.7.9 2.7 2.9 4.7 2 1.9 3.3 3.5 2.9 3.5-.4 0 .1.8 1.2 1.9 3.3 3.2 7.4 8.1 7.4 8.9 0 .4.9 1.4 2 2.2 1.1.8 2 2 2 2.8 0 .7.5 1 1 .7.6-.3 1 0 1 .7 0 2 4.3 5.4 4.8 3.8.3-.7 1.3-2 2.3-2.8 1.1-.9 1.9-2.2 1.9-3 0-.7.5-1 1-.7.6.3 1-.1 1-.9 0-.9.5-1.6 1-1.6.6 0 1-.4 1-.9 0-.9 1.1-2.3 6.5-8.6 1.1-1.3 2.7-3.3 3.5-4.5.8-1.2 2.5-3.3 3.8-4.6 1.2-1.4 2.2-3 2.2-3.5 0-.6.5-.7 1-.4.6.3 1 .1 1-.5 0-.9 5.6-8.6 8-11 1.8-1.7 12-15 12-15.5 0-.4 1.2-1.9 2.8-3.4 2.8-2.8 7.4-8.7 8-10.2.6-1.6 2.8-.9 2.8.8.1 2.1 2 10.8 2.4 10.8.2 0 1.2 6.5 1.3 8.2 0 .7.4 1.3.8 1.3s.7.8.7 1.7c0 1 .6 4.6 1.5 8 .8 3.5 1.3 6.3 1 6.3-.3 0 0 .6.6 1.3.6.8.8 1.7.4 2-.3.4 0 .7.8.7 1.1 0 1.1.2-.1 1-1.1.7-1.1 1-.2 1 .7 0 1.1.4.7.9-.3.5-.1 1.3.5 1.6.8.5.7 1.1-.1 2.1-.9 1.1-.8 1.5.3 1.9.8.3 1.4 1.6 1.3 2.8-.1 1.2.2 2.5.8 2.8.5.4 1.1 2.4 1.2 4.5.1 2.2.5 4.6.8 5.4.4.8.9 2.6 1.1 4 .3 1.4.5 2.5.6 2.5.2 0 .5 1.5 1.3 5.5.3 1.4 1 4.5 1.7 6.9.6 2.3.9 4.6.6 4.9-.3.3-.1 1.1.6 1.9.6.8 1.2 2.6 1.4 4.1.1 1.5.3 2.7.4 2.7.2 0 .9 3.6 1.2 6.2.1 1.3.5 2.3.8 2.3.3 0 .7 1.2.8 2.6.1 1.5.8 3.4 1.5 4.2 1 1.3.9 1.4-.2.7-1.1-.6-1.2-.5-.5.6.5.8 1 2.5 1.2 3.9.2 1.3.9 2.8 1.5 3.2.9.5.8.8-.3.8-.9 0-1.1.3-.5.8.6.4 1.2 1.8 1.4 3.2.1 1.4.8 2.8 1.5 3.2.7.5.6.8-.3.8-1.1 0-1.2.3-.4 1.1.6.6.9 1.8.6 2.5-.3.8-.1 1.4.5 1.4s.8.9.5 2c-.3 1.1-.1 2 .3 2 .5 0 1 1 1.1 2.3.2 1.2.4 3.3.5 4.7.2 1.4.7 2.8 1.2 3.1 1.6 1.3-.9 3.4-4.1 3.5-1.8 0-3.3-.3-3.3-.7 0-.4-1.3-.4-3 .1-1.9.5-3 .5-3-.1s-.4-.7-1-.4c-1.8 1.1-5 1.4-5 .5 0-.5-.6-.7-1.3-.4-2.3.8-8.6 1-8.1.2.3-.4-.6-.4-1.9.1-2.7 1-5.3-.1-4.3-1.8.4-.6.2-1.1-.4-1.1-.6 0-.8-.5-.5-1 .3-.6.3-1-.2-1-.4 0-.9-1.2-1-2.8-.4-3.9-.8-5.5-1.6-6.8-.3-.6-.8-2.5-.9-4.3-.1-1.7-.5-3.1-.8-3.1-.3 0-.6-1.3-.7-2.8-.3-3.9-.7-5.6-1.5-6.2-.4-.3-.9-2.5-1-4.8-.2-2.3-.7-4.2-1.2-4.2-.4 0-.6-.7-.2-1.5.3-.8.1-1.5-.4-1.5s-.6-.7-.3-1.7c.5-1.1.3-1.4-.6-.8-1 .6-1.1.3-.2-1.2.7-1.4.7-2.3-.1-3.1-.6-.6-1.2-2.5-1.4-4.3-.2-1.7-1-4.4-1.7-5.9-.9-1.7-1.1-3.5-.5-4.9.5-1.4.4-2-.2-1.6-.9.6-1.3-.7-1.3-4.8 0-.9-.4-1.7-.8-1.7-.5 0-.9-1.3-.9-2.9 0-4.3-1.2-4.4-3.9-.5-1.3 1.8-2.7 3.1-3.2 2.8-.5-.3-.9-.2-.8.3.4 1.5-1.3 4.3-2.2 3.7-.5-.3-.9.2-.9 1 0 .9-.5 1.6-1 1.6-.6 0-1.5 1.2-2 2.6-.6 1.4-1.5 2.2-2 1.9-.6-.4-.9-.3-.8.2.2.5-.3 1.5-1 2.3-1.4 1.7-3 3.6-10.4 12.6-2.9 3.6-7 8.3-9 10.5-2 2.1-3.3 3.9-3 3.9.4 0-.1.5-1.1 1.1-1.3.8-2.1.6-3.3-.5-.8-.9-1.2-1.6-.8-1.6.4 0-.7-1.3-2.3-2.9-1.7-1.6-3.9-4.3-4.9-5.9-1-1.7-2.1-2.9-2.6-2.6-.4.3-.8.1-.8-.4s-1-2-2.2-3.4c-1.3-1.4-3.9-4.5-5.8-6.8-6.1-7.3-9.4-11.2-11.7-13.6-1.3-1.3-2.3-2.8-2.3-3.4 0-.6-.4-.8-1-.5-.5.3-1-.1-1-1 0-.8-.7-1.8-1.5-2.1-.8-.4-1.2-1.1-.9-1.6.4-.6-.2-.8-1.2-.6-1.1.2-1.9.8-1.8 1.3 0 .6-.3 2.6-.8 4.5-1.1 4-1.9 7.9-2 9.7-.1.7-.4 1.3-.8 1.3s-.6 1.3-.5 3c.1 1.6-.2 2.7-.6 2.5-.4-.3-1 1.9-1.4 4.7-.4 2.9-.6 5.3-.5 5.3.2 0-.2 1-.8 2.2-.7 1.2-1.4 3.5-1.6 5-.3 1.5-.9 4.3-1.4 6-.6 1.8-.8 3.3-.5 3.3.3 0 0 .7-.7 1.5s-1 1.5-.7 1.5c.3 0-.1 2.3-.8 5.2-.8 2.8-1.2 5.5-.9 6 .3.4 0 .8-.6.8-.7 0-1 .7-.6 1.5.3.8.1 1.5-.5 1.5s-.7.5-.4 1c.4.6.2 1.6-.3 2.3-.5.7-.8 2-.7 2.9.2 1-.1 2-.5 2.3-.5.3-.6 1.3-.3 2.2.4 1.1.3 1.4-.5.9-.7-.4-1.2-.2-1.2.4 0 .7-.6.8-1.9.1-1-.6-2.1-.7-2.5-.4-.9 1-4.6 1.1-4.6.2 0-.4-1.3-.4-3 .1-1.9.5-3 .5-3-.1s-.7-.6-1.7-.2c-2.2 1.1-4.4 1-6.2-.1-.7-.5-1.6-.5-2 0-.7 1.1-4.1 1.1-5.9.1-.6-.5-1.2-.4-1.2.1s-.6.9-1.4.9c-1.1 0-1.3-1.1-.9-4.6.3-2.5.5-5.2.6-5.9 0-.6.4-1.2.9-1.2s.6-.5.3-1c-.4-.6-.2-1.6.3-2.3.5-.7.8-2 .7-3-.2-.9 0-1.7.4-1.7s.8-.6.8-1.3c.3-4 .8-6.7 1.3-6.7.3 0 .6-.8.7-1.8.3-3.9 1.6-9.7 2.2-10.2.7-.6 1.2-3.1 1.3-7.3.1-1.5.4-2.7.8-2.7.3 0 .7-1.1.8-2.6.1-1.4.6-3.3 1.1-4.2.4-.9.7-2.5.6-3.5-.2-.9 0-1.7.5-1.7.4 0 .7-1.4.6-3.1-.1-1.7.2-3.6.8-4.3 1-1 1.4-2.7 1.9-7.9.1-.9.4-1.7.8-1.7s.6-.8.4-1.8c-.1-.9.1-2.2.5-2.7.5-.6 1.1-2.6 1.3-4.5.3-1.9.6-3.5.7-3.5.1 0 .3-.7.5-1.5s.6-2.6.9-4c.6-2.8 1.3-5.9 2.2-9.3.3-1.2.6-3.4.7-4.9 0-1.5.4-2.5.9-2.2.7.5 1.2-2.5.9-5.4-.1-.6.3-1.2.9-1.2.6 0 .8-1.1.6-2.5-.3-1.3-.1-2.7.4-3 .5-.3.9-1.3.8-2.3 0-.9.3-2.8.7-4.2.3-1.4.7-3 .9-3.7.1-.7.5-1.6.9-1.9.4-.4.1-1.4-.6-2.2-.8-1-.8-1.3-.1-.9.7.4 1.5 0 1.8-.9.4-1 .2-1.3-.7-.8-.9.6-.9.4-.1-.7 1.3-1.6 2.8-6.6 2.7-9.2-.1-2.7 2.4-2 3.8 1.2z"/></svg>